<?xml version="1.0" encoding="utf-8"?>
<!-- Generator: Adobe Illustrator 19.1.1, SVG Export Plug-In . SVG Version: 6.00 Build 0)  -->
<svg version="1.1" id="Layer_1" xmlns="http://www.w3.org/2000/svg" xmlns:xlink="http://www.w3.org/1999/xlink" x="0px" y="0px"
	 viewBox="0 0 18 18" style="enable-background:new 0 0 18 18;" xml:space="preserve">
<style type="text/css">
	.st0{fill:#78CBEF;}
	.st1{fill:#FFFFFF;}
	.st2{fill:#E95655;}
	.st3{fill:#547BBC;}
	.st4{fill:#1384C7;}
	.st5{fill:#696969;}
</style>
<g>
	<path class="st0" d="M27.8,17c4.4,0,8-3.6,8-8c0-4.4-3.6-8-8-8c-4.4,0-8,3.6-8,8C19.8,13.4,23.4,17,27.8,17"/>
	<path class="st1" d="M31.8,6.9c-0.3,0.1-0.6,0.2-0.9,0.3c0.3-0.2,0.6-0.5,0.7-0.9c-0.3,0.2-0.7,0.3-1,0.4c-0.3-0.3-0.7-0.5-1.2-0.5
		c-0.9,0-1.6,0.7-1.6,1.6c0,0.1,0,0.3,0,0.4c-1.4-0.1-2.6-0.7-3.4-1.7c-0.1,0.2-0.2,0.5-0.2,0.8c0,0.6,0.3,1.1,0.7,1.4
		c-0.3,0-0.5-0.1-0.7-0.2v0c0,0.8,0.6,1.5,1.3,1.6c-0.1,0-0.3,0.1-0.4,0.1c-0.1,0-0.2,0-0.3,0c0.2,0.7,0.8,1.1,1.5,1.1
		c-0.6,0.4-1.3,0.7-2,0.7c-0.1,0-0.3,0-0.4,0c0.7,0.5,1.6,0.7,2.5,0.7c3,0,4.7-2.5,4.7-4.7c0-0.1,0-0.1,0-0.2
		C31.3,7.5,31.6,7.2,31.8,6.9"/>
</g>
<g>
	<path class="st2" d="M27.8,17c4.4,0,8-3.6,8-8c0-4.4-3.6-8-8-8c-4.4,0-8,3.6-8,8C19.8,13.4,23.4,17,27.8,17"/>
	<path class="st1" d="M27.8,5c-2.2,0-4,1.8-4,4c0,1.6,1,3,2.4,3.7c0-0.3,0-0.6,0.1-0.9c0.1-0.3,0.5-2.2,0.5-2.2s-0.1-0.3-0.1-0.6
		c0-0.6,0.3-1,0.8-1c0.4,0,0.5,0.3,0.5,0.6c0,0.4-0.2,0.9-0.4,1.4c-0.1,0.4,0.2,0.8,0.6,0.8c0.8,0,1.3-1,1.3-2.1
		c0-0.9-0.6-1.5-1.7-1.5c-1.2,0-2,0.9-2,1.9c0,0.3,0.1,0.6,0.3,0.8c0.1,0.1,0.1,0.1,0.1,0.2c0,0.1-0.1,0.3-0.1,0.3
		c0,0.1-0.1,0.1-0.2,0.1c-0.6-0.2-0.8-0.8-0.8-1.5c0-1.1,1-2.5,2.9-2.5c1.5,0,2.5,1.1,2.5,2.3c0,1.6-0.9,2.7-2.2,2.7
		c-0.4,0-0.8-0.2-1-0.5c0,0-0.2,0.9-0.3,1.1c-0.1,0.3-0.3,0.6-0.4,0.9c0.4,0.1,0.7,0.2,1.1,0.2c2.2,0,4-1.8,4-4
		C31.8,6.8,30,5,27.8,5"/>
</g>
<g>
	<path class="st3" d="M27.8,17c4.4,0,8-3.6,8-8c0-4.4-3.6-8-8-8c-4.4,0-8,3.6-8,8C19.8,13.4,23.4,17,27.8,17"/>
	<path class="st1" d="M25.9,7.6h0.8V6.8c0-0.4,0-0.9,0.3-1.2C27.2,5.2,27.6,5,28.3,5c1,0,1.5,0.1,1.5,0.1l-0.2,1.2
		c0,0-0.3-0.1-0.7-0.1c-0.3,0-0.6,0.1-0.6,0.4v0.9h1.3l-0.1,1.2h-1.2V13h-1.6V8.8h-0.8V7.6z"/>
</g>
<g>
	<path class="st4" d="M27.8,17c4.4,0,8-3.6,8-8c0-4.4-3.6-8-8-8c-4.4,0-8,3.6-8,8C19.8,13.4,23.4,17,27.8,17"/>
	<path class="st1" d="M25.6,12.3H24v-5h1.6V12.3z M24.8,6.7L24.8,6.7c-0.6,0-0.9-0.4-0.9-0.9c0-0.5,0.4-0.9,1-0.9
		c0.6,0,0.9,0.4,0.9,0.9C25.7,6.3,25.3,6.7,24.8,6.7z M31.8,12.3H30V9.8c0-0.7-0.3-1.1-0.9-1.1c-0.5,0-0.7,0.3-0.8,0.6
		c0,0.1,0,0.3,0,0.4v2.7h-1.8c0,0,0-4.6,0-5h1.8v0.8c0.1-0.3,0.7-0.8,1.6-0.8c1.1,0,2,0.7,2,2.3V12.3z"/>
</g>
<g>
	<path class="st5" d="M9,17c4.4,0,8-3.6,8-8c0-4.4-3.6-8-8-8C4.6,1,1,4.6,1,9C1,13.4,4.6,17,9,17"/>
	<path class="st1" d="M11.5,5H6.5C5.7,5,5,5.7,5,6.5v1.6v3.3C5,12.3,5.7,13,6.5,13h4.9c0.9,0,1.5-0.7,1.5-1.5V8.2V6.5
		C13,5.7,12.3,5,11.5,5z M11.9,5.9l0.2,0v0.2v1.2l-1.4,0l0-1.4L11.9,5.9z M7.9,8.2C8.1,7.8,8.5,7.6,9,7.6c0.5,0,0.9,0.2,1.1,0.6
		c0.2,0.2,0.3,0.5,0.3,0.8c0,0.8-0.6,1.4-1.4,1.4c-0.8,0-1.4-0.6-1.4-1.4C7.6,8.7,7.7,8.4,7.9,8.2z M12.2,11.5
		c0,0.4-0.3,0.8-0.8,0.8H6.5c-0.4,0-0.8-0.3-0.8-0.8V8.2H7C6.9,8.4,6.8,8.7,6.8,9c0,1.2,1,2.2,2.2,2.2c1.2,0,2.2-1,2.2-2.2
		c0-0.3-0.1-0.6-0.2-0.8h1.2V11.5z"/>
</g>
</svg>
