<?xml version="1.0" encoding="utf-8"?>
<!-- Generator: Adobe Illustrator 19.1.1, SVG Export Plug-In . SVG Version: 6.00 Build 0)  -->
<svg version="1.1" id="Layer_1" xmlns="http://www.w3.org/2000/svg" xmlns:xlink="http://www.w3.org/1999/xlink" x="0px" y="0px"
	 viewBox="0 0 36 36" style="enable-background:new 0 0 36 36;" xml:space="preserve">
<style type="text/css">
	.st0{fill:#78CBEF;}
	.st1{fill:#FFFFFF;}
	.st2{fill:#E95655;}
	.st3{fill:#547BBC;}
	.st4{fill:#1384C7;}
	.st5{fill:#696969;}
</style>
<g>
	<path class="st0" d="M-100.5,132.5c9.4,0,17-7.6,17-17c0-9.4-7.6-17-17-17c-9.4,0-17,7.6-17,17
		C-117.5,124.9-109.9,132.5-100.5,132.5"/>
	<path class="st1" d="M-92,111c-0.6,0.3-1.3,0.5-2,0.6c0.7-0.4,1.3-1.1,1.5-1.9c-0.7,0.4-1.4,0.7-2.2,0.8c-0.6-0.7-1.5-1.1-2.6-1.1
		c-1.9,0-3.5,1.6-3.5,3.5c0,0.3,0,0.5,0.1,0.8c-2.9-0.1-5.5-1.5-7.2-3.7c-0.3,0.5-0.5,1.1-0.5,1.8c0,1.2,0.6,2.3,1.6,2.9
		c-0.6,0-1.1-0.2-1.6-0.4v0c0,1.7,1.2,3.1,2.8,3.4c-0.3,0.1-0.6,0.1-0.9,0.1c-0.2,0-0.4,0-0.7-0.1c0.4,1.4,1.7,2.4,3.3,2.4
		c-1.2,0.9-2.7,1.5-4.3,1.5c-0.3,0-0.6,0-0.8,0c1.5,1,3.4,1.6,5.4,1.6c6.4,0,9.9-5.3,9.9-9.9c0-0.2,0-0.3,0-0.5
		C-93,112.4-92.5,111.7-92,111"/>
</g>
<g>
	<path class="st2" d="M-38,129.5c9.4,0,17-7.6,17-17c0-9.4-7.6-17-17-17c-9.4,0-17,7.6-17,17C-55,121.9-47.4,129.5-38,129.5"/>
	<path class="st1" d="M-38,104c-4.7,0-8.5,3.8-8.5,8.5c0,3.5,2.1,6.5,5.1,7.8c0-0.6,0-1.3,0.1-2c0.2-0.7,1.1-4.6,1.1-4.6
		s-0.3-0.5-0.3-1.3c0-1.3,0.7-2.2,1.6-2.2c0.8,0,1.1,0.6,1.1,1.3c0,0.8-0.5,1.9-0.8,3c-0.2,0.9,0.5,1.6,1.3,1.6
		c1.6,0,2.7-2.1,2.7-4.5c0-1.9-1.3-3.3-3.5-3.3c-2.6,0-4.2,1.9-4.2,4.1c0,0.7,0.2,1.3,0.6,1.7c0.2,0.2,0.2,0.3,0.1,0.5
		c0,0.2-0.1,0.5-0.2,0.7c-0.1,0.2-0.2,0.3-0.4,0.2c-1.2-0.5-1.7-1.8-1.7-3.2c0-2.4,2-5.3,6.1-5.3c3.2,0,5.4,2.4,5.4,4.9
		c0,3.3-1.9,5.8-4.6,5.8c-0.9,0-1.8-0.5-2.1-1.1c0,0-0.5,2-0.6,2.3c-0.2,0.7-0.5,1.3-0.9,1.8c0.8,0.2,1.6,0.3,2.4,0.3
		c4.7,0,8.5-3.8,8.5-8.5C-29.5,107.8-33.3,104-38,104"/>
</g>
<g>
	<path class="st3" d="M57,107.9c9.4,0,17-7.6,17-17c0-9.4-7.6-17-17-17c-9.4,0-17,7.6-17,17C40,100.2,47.6,107.9,57,107.9"/>
	<path class="st1" d="M52.9,88h1.8v-1.7c0-0.8,0-1.9,0.6-2.6c0.6-0.8,1.4-1.3,2.7-1.3c2.2,0,3.2,0.3,3.2,0.3l-0.4,2.6
		c0,0-0.7-0.2-1.4-0.2c-0.7,0-1.3,0.2-1.3,0.9v2h2.8l-0.2,2.5H58v8.8h-3.3v-8.8h-1.8V88z"/>
</g>
<g>
	<path class="st4" d="M18,35c9.4,0,17-7.6,17-17c0-9.4-7.6-17-17-17C8.6,1,1,8.6,1,18C1,27.4,8.6,35,18,35"/>
	<path class="st1" d="M13.2,25.1H9.9V14.5h3.3V25.1z M11.5,13.2L11.5,13.2c-1.2,0-2-0.8-2-1.8c0-1,0.8-1.8,2-1.8c1.2,0,2,0.8,2,1.8
		C13.5,12.4,12.7,13.2,11.5,13.2z M26.5,25.1h-3.8v-5.5c0-1.4-0.6-2.4-1.9-2.4c-1,0-1.5,0.7-1.8,1.3C19,18.7,19,19.1,19,19.4v5.7
		h-3.7c0,0,0-9.7,0-10.6H19v1.7c0.2-0.7,1.4-1.8,3.3-1.8c2.4,0,4.2,1.5,4.2,4.8V25.1z"/>
</g>
<g>
	<path class="st5" d="M18,101c9.4,0,17-7.6,17-17c0-9.4-7.6-17-17-17C8.6,67,1,74.6,1,84C1,93.4,8.6,101,18,101"/>
	<path class="st1" d="M23.2,75.5H12.8c-1.8,0-3.3,1.5-3.3,3.3v3.5v7c0,1.8,1.5,3.3,3.3,3.3h10.4c1.8,0,3.3-1.5,3.3-3.3v-7v-3.5
		C26.5,77,25,75.5,23.2,75.5z M24.2,77.5l0.4,0v0.4v2.5l-2.9,0l0-2.9L24.2,77.5z M15.6,82.3C16.1,81.5,17,81,18,81
		c1,0,1.9,0.5,2.4,1.2c0.4,0.5,0.6,1.1,0.6,1.7c0,1.7-1.3,3-3,3c-1.7,0-3-1.3-3-3C15,83.3,15.2,82.7,15.6,82.3z M24.8,89.2
		c0,0.9-0.7,1.6-1.6,1.6H12.8c-0.9,0-1.6-0.7-1.6-1.6v-7h2.5c-0.2,0.5-0.3,1.1-0.3,1.7c0,2.6,2.1,4.7,4.7,4.7c2.6,0,4.7-2.1,4.7-4.7
		c0-0.6-0.1-1.2-0.3-1.7h2.5V89.2z"/>
</g>
</svg>
